<svg width="32" height="32" viewBox="0 0 32 32" fill="none" xmlns="http://www.w3.org/2000/svg">
  <rect width="32" height="32" rx="8" fill="#0ea5e9"/>
  <path d="M16 8C14.3431 8 13 9.34315 13 11C13 11.1792 13.0147 11.355 13.043 11.5265C12.4222 11.8169 12 12.458 12 13.2C12 13.6744 12.1736 14.1068 12.4608 14.4374C11.5888 14.9088 11 15.8284 11 16.9C11 18.0044 11.6258 18.9514 12.5427 19.3999C12.2176 19.7568 12.0215 20.2306 12.0215 20.75C12.0215 21.9926 13.0289 23 14.2715 23C14.5245 23 14.7677 22.9575 14.9942 22.8789C15.3087 23.5394 15.9954 24 16.7857 24H17C18.1046 24 19 23.1046 19 22V11C19 9.34315 17.6569 8 16 8Z" fill="white"/>
  <circle cx="21" cy="11" r="1" fill="white"/>
  <circle cx="21" cy="16" r="1" fill="white"/>
  <circle cx="21" cy="21" r="1" fill="white"/>
  <path d="M16 14H21" stroke="white" stroke-width="1.5" stroke-linecap="round"/>
  <path d="M16 19H20" stroke="white" stroke-width="1.5" stroke-linecap="round"/>
</svg>
